<svg xmlns="http://www.w3.org/2000/svg" viewBox="0 0 439 534" role="img" aria-label="Paty Cuenca">
    <path
        fill="#30343a"
        d="M0 0h158c91 0 165 75 165 168 0 59-30 113-72 141l-46-27c42-18 71-62 71-114 0-66-53-119-118-119H49v485H0V0Z"
    />
    <path
        fill="#30343a"
        d="M251 216c-101-12-189 59-189 157 0 89 73 161 163 161 91 0 164-67 166-152h-48c-2 59-54 104-118 104s-115-51-115-113c0-59 43-108 100-111l41-46Z"
    />
    <circle cx="191" cy="352" r="30" fill="#00999e" />
    <path fill="#00999e" d="M348 223c1-50 32-85 76-85h15c-1 46-30 85-76 85h-15Z" />
</svg>
